<?xml version="1.0" encoding="UTF-8" standalone="no"?>
<!DOCTYPE svg PUBLIC "-//W3C//DTD SVG 1.1//EN"
 "http://www.w3.org/Graphics/SVG/1.1/DTD/svg11.dtd">
<!-- Generated by graphviz version 13.0.0 (20250608.1624)
 -->
<!-- Pages: 1 -->
<svg width="136pt" height="159pt"
 viewBox="0.00 0.00 136.00 159.00" xmlns="http://www.w3.org/2000/svg" xmlns:xlink="http://www.w3.org/1999/xlink">
<g id="graph0" class="graph" transform="scale(1 1) rotate(0) translate(4 154.5)">
<polygon fill="white" stroke="none" points="-4,4 -4,-154.5 132,-154.5 132,4 -4,4"/>
<g id="clust1" class="cluster">
<title>cluster_main</title>
</g>
<!-- TransportNode -->
<g id="node1" class="node">
<title>TransportNode</title>
<polygon fill="none" stroke="black" points="16.25,-98 16.25,-134 111.75,-134 111.75,-98 16.25,-98"/>
<text xml:space="preserve" text-anchor="middle" x="64" y="-111.72" font-family="Arial" font-size="12.00">TransportNode</text>
</g>
<!-- Junction -->
<g id="node2" class="node">
<title>Junction</title>
<polygon fill="none" stroke="black" points="33.5,-16.5 33.5,-61 94.5,-61 94.5,-16.5 33.5,-16.5"/>
<text xml:space="preserve" text-anchor="middle" x="64" y="-45.6" font-family="Arial" font-size="12.00">Junction</text>
<polyline fill="none" stroke="black" points="33.5,-38.75 94.5,-38.75"/>
<text xml:space="preserve" text-anchor="middle" x="64" y="-23.35" font-family="Arial" font-size="12.00"> </text>
</g>
<!-- Junction&#45;&gt;TransportNode -->
<g id="edge1" class="edge">
<title>Junction&#45;&gt;TransportNode</title>
<path fill="none" stroke="black" d="M64,-61.41C64,-69.12 64,-77.92 64,-86.13"/>
<polygon fill="none" stroke="black" points="60.5,-86.03 64,-96.03 67.5,-86.03 60.5,-86.03"/>
</g>
</g>
</svg>
