<?xml version="1.0" encoding="UTF-8" standalone="no"?>
<!DOCTYPE svg PUBLIC "-//W3C//DTD SVG 1.1//EN"
 "http://www.w3.org/Graphics/SVG/1.1/DTD/svg11.dtd">
<!-- Generated by graphviz version 13.0.0 (20250608.1624)
 -->
<!-- Pages: 1 -->
<svg width="449pt" height="245pt"
 viewBox="0.00 0.00 449.00 245.00" xmlns="http://www.w3.org/2000/svg" xmlns:xlink="http://www.w3.org/1999/xlink">
<g id="graph0" class="graph" transform="scale(1 1) rotate(0) translate(4 240.5)">
<polygon fill="white" stroke="none" points="-4,4 -4,-240.5 445,-240.5 445,4 -4,4"/>
<g id="clust1" class="cluster">
<title>cluster_main</title>
</g>
<g id="clust3" class="cluster">
<title>cluster_others</title>
</g>
<!-- ITSThing -->
<g id="node1" class="node">
<title>ITSThing</title>
<polygon fill="none" stroke="black" points="139.25,-184 139.25,-220 204.75,-220 204.75,-184 139.25,-184"/>
<text xml:space="preserve" text-anchor="middle" x="172" y="-197.72" font-family="Arial" font-size="12.00">ITSThing</text>
</g>
<!-- geo_Feature -->
<g id="node2" class="node">
<title>geo_Feature</title>
<polygon fill="none" stroke="black" points="222.75,-184 222.75,-220 303.25,-220 303.25,-184 222.75,-184"/>
<text xml:space="preserve" text-anchor="middle" x="263" y="-197.72" font-family="Arial" font-size="12.00">geo:Feature</text>
</g>
<!-- NetworkElement -->
<g id="node3" class="node">
<title>NetworkElement</title>
<polygon fill="none" stroke="black" points="118.5,-101.5 118.5,-146 299.5,-146 299.5,-101.5 118.5,-101.5"/>
<text xml:space="preserve" text-anchor="middle" x="209" y="-130.6" font-family="Arial" font-size="12.00">NetworkElement</text>
<polyline fill="none" stroke="black" points="118.5,-123.75 299.5,-123.75"/>
<text xml:space="preserve" text-anchor="middle" x="209" y="-108.35" font-family="Arial" font-size="12.00">genProp:hasIdentifier: string [1]</text>
</g>
<!-- NetworkElement&#45;&gt;ITSThing -->
<g id="edge1" class="edge">
<title>NetworkElement&#45;&gt;ITSThing</title>
<path fill="none" stroke="black" d="M198.52,-146.35C194.44,-154.75 189.72,-164.49 185.4,-173.39"/>
<polygon fill="none" stroke="black" points="182.27,-171.81 181.06,-182.34 188.57,-174.87 182.27,-171.81"/>
</g>
<!-- NetworkElement&#45;&gt;geo_Feature -->
<g id="edge2" class="edge">
<title>NetworkElement&#45;&gt;geo_Feature</title>
<path fill="none" stroke="black" d="M224.3,-146.35C230.51,-155.12 237.75,-165.35 244.28,-174.56"/>
<polygon fill="none" stroke="black" points="241.24,-176.32 249.87,-182.46 246.95,-172.28 241.24,-176.32"/>
</g>
<!-- NetworkElement&#45;&gt;NetworkElement -->
<g id="edge3" class="edge">
<title>NetworkElement:e&#45;&gt;NetworkElement</title>
<path fill="none" stroke="black" d="M299.5,-123.75C305.5,-134.06 317.5,-134.06 317.5,-123.75 317.5,-121.84 315.01,-120.28 310.72,-119.07"/>
<polygon fill="black" stroke="black" points="311.57,-115.67 301.11,-117.37 310.34,-122.56 311.57,-115.67"/>
<text xml:space="preserve" text-anchor="middle" x="371.12" y="-120.25" font-family="Arial" font-size="10.00">partwhole:hasProperPart</text>
</g>
<!-- NetworkElement&#45;&gt;NetworkElement -->
<g id="edge4" class="edge">
<title>NetworkElement:w&#45;&gt;NetworkElement</title>
<path fill="none" stroke="black" d="M118.5,-123.75C112.5,-134.06 100.5,-134.06 100.5,-123.75 100.5,-121.84 102.99,-120.28 107.28,-119.07"/>
<polygon fill="black" stroke="black" points="107.66,-122.56 116.89,-117.37 106.43,-115.67 107.66,-122.56"/>
<text xml:space="preserve" text-anchor="middle" x="50.25" y="-120.25" font-family="Arial" font-size="10.00">partwhole:properPartOf</text>
</g>
<!-- Status -->
<g id="node4" class="node">
<title>Status</title>
<polygon fill="none" stroke="black" points="182,-16.5 182,-52.5 236,-52.5 236,-16.5 182,-16.5"/>
<text xml:space="preserve" text-anchor="middle" x="208.88" y="-30.23" font-family="Arial" font-size="12.00">Status</text>
</g>
<!-- NetworkElement&#45;&gt;Status -->
<g id="edge5" class="edge">
<title>NetworkElement:s&#45;&gt;Status</title>
<path fill="none" stroke="black" d="M209,-100.5C209,-88.65 209,-75.58 209,-64.29"/>
<polygon fill="black" stroke="black" points="212.5,-64.39 209,-54.39 205.5,-64.39 212.5,-64.39"/>
<text xml:space="preserve" text-anchor="middle" x="222.5" y="-73.5" font-family="Arial" font-size="10.00">status</text>
</g>
</g>
</svg>
