<?xml version="1.0" encoding="UTF-8" standalone="no"?>
<!DOCTYPE svg PUBLIC "-//W3C//DTD SVG 1.1//EN"
 "http://www.w3.org/Graphics/SVG/1.1/DTD/svg11.dtd">
<!-- Generated by graphviz version 13.0.0 (20250608.1624)
 -->
<!-- Pages: 1 -->
<svg width="528pt" height="245pt"
 viewBox="0.00 0.00 528.00 245.00" xmlns="http://www.w3.org/2000/svg" xmlns:xlink="http://www.w3.org/1999/xlink">
<g id="graph0" class="graph" transform="scale(1 1) rotate(0) translate(4 240.5)">
<polygon fill="white" stroke="none" points="-4,4 -4,-240.5 524.21,-240.5 524.21,4 -4,4"/>
<g id="clust1" class="cluster">
<title>cluster_main</title>
</g>
<g id="clust3" class="cluster">
<title>cluster_others</title>
</g>
<!-- NetworkElement -->
<g id="node1" class="node">
<title>NetworkElement</title>
<polygon fill="none" stroke="black" points="186.75,-184 186.75,-220 291.25,-220 291.25,-184 186.75,-184"/>
<text xml:space="preserve" text-anchor="middle" x="239" y="-197.72" font-family="Arial" font-size="12.00">NetworkElement</text>
</g>
<!-- TransportNetwork -->
<g id="node2" class="node">
<title>TransportNetwork</title>
<polygon fill="none" stroke="black" points="183.75,-101.5 183.75,-146 294.25,-146 294.25,-101.5 183.75,-101.5"/>
<text xml:space="preserve" text-anchor="middle" x="239" y="-130.6" font-family="Arial" font-size="12.00">TransportNetwork</text>
<polyline fill="none" stroke="black" points="183.75,-123.75 294.25,-123.75"/>
<text xml:space="preserve" text-anchor="middle" x="239" y="-108.35" font-family="Arial" font-size="12.00"> </text>
</g>
<!-- TransportNetwork&#45;&gt;NetworkElement -->
<g id="edge1" class="edge">
<title>TransportNetwork&#45;&gt;NetworkElement</title>
<path fill="none" stroke="black" d="M239,-146.35C239,-154.38 239,-163.64 239,-172.21"/>
<polygon fill="none" stroke="black" points="235.5,-172.18 239,-182.18 242.5,-172.18 235.5,-172.18"/>
</g>
<!-- TransportNetwork&#45;&gt;TransportNetwork -->
<g id="edge2" class="edge">
<title>TransportNetwork:e&#45;&gt;TransportNetwork</title>
<path fill="none" stroke="black" d="M294.25,-123.75C300.25,-134.06 312.25,-134.06 312.25,-123.75 312.25,-121.44 309.81,-119.65 305.75,-118.38"/>
<polygon fill="black" stroke="black" points="306.52,-114.96 296.07,-116.68 305.31,-121.86 306.52,-114.96"/>
<text xml:space="preserve" text-anchor="middle" x="365.88" y="-120.25" font-family="Arial" font-size="10.00">partwhole:hasProperPart</text>
</g>
<!-- TransportNetwork&#45;&gt;TransportNetwork -->
<g id="edge3" class="edge">
<title>TransportNetwork:w&#45;&gt;TransportNetwork</title>
<path fill="none" stroke="black" d="M183.75,-123.75C177.75,-134.06 165.75,-134.06 165.75,-123.75 165.75,-121.44 168.19,-119.65 172.25,-118.38"/>
<polygon fill="black" stroke="black" points="172.69,-121.86 181.93,-116.68 171.48,-114.96 172.69,-121.86"/>
<text xml:space="preserve" text-anchor="middle" x="115.5" y="-120.25" font-family="Arial" font-size="10.00">partwhole:properPartOf</text>
</g>
<!-- TransportNode -->
<g id="node3" class="node">
<title>TransportNode</title>
<polygon fill="none" stroke="black" points="16.25,-16.5 16.25,-52.5 111.75,-52.5 111.75,-16.5 16.25,-16.5"/>
<text xml:space="preserve" text-anchor="middle" x="64" y="-30.23" font-family="Arial" font-size="12.00">TransportNode</text>
</g>
<!-- TransportNetwork&#45;&gt;TransportNode -->
<g id="edge4" class="edge">
<title>TransportNetwork:s&#45;&gt;TransportNode</title>
<path fill="none" stroke="black" d="M239,-100.5C239,-59.37 82.42,-113.43 54.75,-83 49.93,-77.7 49.35,-70.65 50.72,-63.62"/>
<polygon fill="black" stroke="black" points="54,-64.85 53.68,-54.26 47.32,-62.74 54,-64.85"/>
<text xml:space="preserve" text-anchor="middle" x="108.38" y="-73.5" font-family="Arial" font-size="10.00">partwhole:hasProperPart</text>
</g>
<!-- TravelledWay -->
<g id="node4" class="node">
<title>TravelledWay</title>
<polygon fill="none" stroke="black" points="130.25,-16.5 130.25,-52.5 219.75,-52.5 219.75,-16.5 130.25,-16.5"/>
<text xml:space="preserve" text-anchor="middle" x="175" y="-30.23" font-family="Arial" font-size="12.00">TravelledWay</text>
</g>
<!-- TransportNetwork&#45;&gt;TravelledWay -->
<g id="edge5" class="edge">
<title>TransportNetwork:s&#45;&gt;TravelledWay</title>
<path fill="none" stroke="black" d="M239,-100.5C239,-69.19 189.95,-107.74 170.75,-83 166.59,-77.64 165.53,-70.84 166.01,-64.07"/>
<polygon fill="black" stroke="black" points="169.41,-64.92 167.74,-54.46 162.52,-63.68 169.41,-64.92"/>
<text xml:space="preserve" text-anchor="middle" x="224.38" y="-73.5" font-family="Arial" font-size="10.00">partwhole:hasProperPart</text>
</g>
<!-- TravelledWayLink -->
<g id="node5" class="node">
<title>TravelledWayLink</title>
<polygon fill="none" stroke="black" points="238,-16.5 238,-52.5 350,-52.5 350,-16.5 238,-16.5"/>
<text xml:space="preserve" text-anchor="middle" x="294" y="-30.23" font-family="Arial" font-size="12.00">TravelledWayLink</text>
</g>
<!-- TransportNetwork&#45;&gt;TravelledWayLink -->
<g id="edge6" class="edge">
<title>TransportNetwork:s&#45;&gt;TravelledWayLink</title>
<path fill="none" stroke="black" d="M239,-100.5C239,-79.87 268.46,-98.57 282,-83 286.65,-77.66 289.54,-70.76 291.33,-63.89"/>
<polygon fill="black" stroke="black" points="294.76,-64.59 293.14,-54.12 287.88,-63.32 294.76,-64.59"/>
<text xml:space="preserve" text-anchor="middle" x="342.36" y="-73.5" font-family="Arial" font-size="10.00">partwhole:hasProperPart</text>
</g>
<!-- TravelledWaySection -->
<g id="node6" class="node">
<title>TravelledWaySection</title>
<polygon fill="none" stroke="black" points="368,-16.5 368,-52.5 498,-52.5 498,-16.5 368,-16.5"/>
<text xml:space="preserve" text-anchor="middle" x="433" y="-30.23" font-family="Arial" font-size="12.00">TravelledWaySection</text>
</g>
<!-- TransportNetwork&#45;&gt;TravelledWaySection -->
<g id="edge7" class="edge">
<title>TransportNetwork:s&#45;&gt;TravelledWaySection</title>
<path fill="none" stroke="black" d="M239,-100.5C239,-64.51 369.06,-101.38 400,-83 408.13,-78.17 414.75,-70.46 419.87,-62.65"/>
<polygon fill="black" stroke="black" points="422.77,-64.61 424.78,-54.21 416.72,-61.09 422.77,-64.61"/>
<text xml:space="preserve" text-anchor="middle" x="466.59" y="-73.5" font-family="Arial" font-size="10.00">partwhole:hasProperPart</text>
</g>
</g>
</svg>
