<?xml version="1.0" encoding="UTF-8" standalone="no"?>
<!DOCTYPE svg PUBLIC "-//W3C//DTD SVG 1.1//EN"
 "http://www.w3.org/Graphics/SVG/1.1/DTD/svg11.dtd">
<!-- Generated by graphviz version 13.0.0 (20250608.1624)
 -->
<!-- Pages: 1 -->
<svg width="280pt" height="245pt"
 viewBox="0.00 0.00 280.00 245.00" xmlns="http://www.w3.org/2000/svg" xmlns:xlink="http://www.w3.org/1999/xlink">
<g id="graph0" class="graph" transform="scale(1 1) rotate(0) translate(4 240.5)">
<polygon fill="white" stroke="none" points="-4,4 -4,-240.5 276,-240.5 276,4 -4,4"/>
<g id="clust1" class="cluster">
<title>cluster_main</title>
</g>
<g id="clust3" class="cluster">
<title>cluster_others</title>
</g>
<!-- NetworkElement -->
<g id="node1" class="node">
<title>NetworkElement</title>
<polygon fill="none" stroke="black" points="142.75,-184 142.75,-220 247.25,-220 247.25,-184 142.75,-184"/>
<text xml:space="preserve" text-anchor="middle" x="195" y="-197.72" font-family="Arial" font-size="12.00">NetworkElement</text>
</g>
<!-- TransportNode -->
<g id="node2" class="node">
<title>TransportNode</title>
<polygon fill="none" stroke="black" points="147.25,-101.5 147.25,-146 242.75,-146 242.75,-101.5 147.25,-101.5"/>
<text xml:space="preserve" text-anchor="middle" x="195" y="-130.6" font-family="Arial" font-size="12.00">TransportNode</text>
<polyline fill="none" stroke="black" points="147.25,-123.75 242.75,-123.75"/>
<text xml:space="preserve" text-anchor="middle" x="195" y="-108.35" font-family="Arial" font-size="12.00"> </text>
</g>
<!-- TransportNode&#45;&gt;NetworkElement -->
<g id="edge1" class="edge">
<title>TransportNode&#45;&gt;NetworkElement</title>
<path fill="none" stroke="black" d="M195,-146.35C195,-154.38 195,-163.64 195,-172.21"/>
<polygon fill="none" stroke="black" points="191.5,-172.18 195,-182.18 198.5,-172.18 191.5,-172.18"/>
</g>
<!-- TransportNetwork -->
<g id="node3" class="node">
<title>TransportNetwork</title>
<polygon fill="none" stroke="black" points="15.75,-16.5 15.75,-52.5 126.25,-52.5 126.25,-16.5 15.75,-16.5"/>
<text xml:space="preserve" text-anchor="middle" x="71" y="-30.23" font-family="Arial" font-size="12.00">TransportNetwork</text>
</g>
<!-- TransportNode&#45;&gt;TransportNetwork -->
<g id="edge4" class="edge">
<title>TransportNode:s&#45;&gt;TransportNetwork</title>
<path fill="none" stroke="black" d="M195,-100.5C195,-76.95 108.9,-97.69 90.5,-83 84.39,-78.13 80.18,-71.02 77.28,-63.78"/>
<polygon fill="black" stroke="black" points="80.67,-62.87 74.28,-54.41 74,-65 80.67,-62.87"/>
<text xml:space="preserve" text-anchor="middle" x="140.75" y="-73.5" font-family="Arial" font-size="10.00">partwhole:properPartOf</text>
</g>
<!-- TravelledWayLink -->
<g id="node4" class="node">
<title>TravelledWayLink</title>
<polygon fill="none" stroke="black" points="144,-16.5 144,-52.5 256,-52.5 256,-16.5 144,-16.5"/>
<text xml:space="preserve" text-anchor="middle" x="200" y="-30.23" font-family="Arial" font-size="12.00">TravelledWayLink</text>
</g>
<!-- TransportNode&#45;&gt;TravelledWayLink -->
<g id="edge2" class="edge">
<title>TransportNode:s&#45;&gt;TravelledWayLink</title>
<path fill="none" stroke="black" d="M195,-100.5C195,-87.38 194.8,-84.08 195.75,-71 195.91,-68.77 196.11,-66.47 196.34,-64.15"/>
<polygon fill="black" stroke="black" points="199.8,-64.63 197.43,-54.31 192.85,-63.86 199.8,-64.63"/>
<text xml:space="preserve" text-anchor="middle" x="210.38" y="-73.5" font-family="Arial" font-size="10.00">egress</text>
</g>
<!-- TransportNode&#45;&gt;TravelledWayLink -->
<g id="edge3" class="edge">
<title>TransportNode:s&#45;&gt;TravelledWayLink</title>
<path fill="none" stroke="black" d="M195,-100.5C195,-85.06 217.31,-96.39 225,-83 228.8,-76.38 227.61,-69.12 224.23,-62.33"/>
<polygon fill="black" stroke="black" points="227.25,-60.55 218.86,-54.08 221.38,-64.37 227.25,-60.55"/>
<text xml:space="preserve" text-anchor="middle" x="243.11" y="-73.5" font-family="Arial" font-size="10.00">ingress</text>
</g>
</g>
</svg>
