<?xml version="1.0" encoding="UTF-8" standalone="no"?>
<!DOCTYPE svg PUBLIC "-//W3C//DTD SVG 1.1//EN"
 "http://www.w3.org/Graphics/SVG/1.1/DTD/svg11.dtd">
<!-- Generated by graphviz version 13.0.0 (20250608.1624)
 -->
<!-- Pages: 1 -->
<svg width="768pt" height="245pt"
 viewBox="0.00 0.00 768.00 245.00" xmlns="http://www.w3.org/2000/svg" xmlns:xlink="http://www.w3.org/1999/xlink">
<g id="graph0" class="graph" transform="scale(1 1) rotate(0) translate(4 240.5)">
<polygon fill="white" stroke="none" points="-4,4 -4,-240.5 764,-240.5 764,4 -4,4"/>
<g id="clust1" class="cluster">
<title>cluster_main</title>
</g>
<g id="clust3" class="cluster">
<title>cluster_others</title>
</g>
<!-- NetworkElement -->
<g id="node1" class="node">
<title>NetworkElement</title>
<polygon fill="none" stroke="black" points="170.75,-184 170.75,-220 275.25,-220 275.25,-184 170.75,-184"/>
<text xml:space="preserve" text-anchor="middle" x="223" y="-197.72" font-family="Arial" font-size="12.00">NetworkElement</text>
</g>
<!-- transinfras_TravelledWayLink -->
<g id="node2" class="node">
<title>transinfras_TravelledWayLink</title>
<polygon fill="none" stroke="black" points="293.75,-184 293.75,-220 464.25,-220 464.25,-184 293.75,-184"/>
<text xml:space="preserve" text-anchor="middle" x="379" y="-197.72" font-family="Arial" font-size="12.00">transinfras:TravelledWayLink</text>
</g>
<!-- TravelledWayLink -->
<g id="node3" class="node">
<title>TravelledWayLink</title>
<polygon fill="none" stroke="black" points="247,-101.5 247,-146 359,-146 359,-101.5 247,-101.5"/>
<text xml:space="preserve" text-anchor="middle" x="303" y="-130.6" font-family="Arial" font-size="12.00">TravelledWayLink</text>
<polyline fill="none" stroke="black" points="247,-123.75 359,-123.75"/>
<text xml:space="preserve" text-anchor="middle" x="303" y="-108.35" font-family="Arial" font-size="12.00"> </text>
</g>
<!-- TravelledWayLink&#45;&gt;NetworkElement -->
<g id="edge1" class="edge">
<title>TravelledWayLink&#45;&gt;NetworkElement</title>
<path fill="none" stroke="black" d="M280.34,-146.35C270.65,-155.59 259.27,-166.43 249.22,-176.01"/>
<polygon fill="none" stroke="black" points="247.07,-173.22 242.25,-182.65 251.9,-178.29 247.07,-173.22"/>
</g>
<!-- TravelledWayLink&#45;&gt;transinfras_TravelledWayLink -->
<g id="edge2" class="edge">
<title>TravelledWayLink&#45;&gt;transinfras_TravelledWayLink</title>
<path fill="none" stroke="black" d="M324.53,-146.35C333.64,-155.49 344.32,-166.21 353.8,-175.72"/>
<polygon fill="none" stroke="black" points="351.15,-178.01 360.69,-182.63 356.11,-173.07 351.15,-178.01"/>
</g>
<!-- TransportNetwork -->
<g id="node4" class="node">
<title>TransportNetwork</title>
<polygon fill="none" stroke="black" points="15.75,-16.5 15.75,-52.5 126.25,-52.5 126.25,-16.5 15.75,-16.5"/>
<text xml:space="preserve" text-anchor="middle" x="71" y="-30.23" font-family="Arial" font-size="12.00">TransportNetwork</text>
</g>
<!-- TravelledWayLink&#45;&gt;TransportNetwork -->
<g id="edge6" class="edge">
<title>TravelledWayLink:s&#45;&gt;TransportNetwork</title>
<path fill="none" stroke="black" d="M303,-100.5C303,-78.8 127.58,-93.33 108.5,-83 99.47,-78.11 91.87,-70.03 85.92,-61.91"/>
<polygon fill="black" stroke="black" points="88.99,-60.21 80.55,-53.8 83.15,-64.07 88.99,-60.21"/>
<text xml:space="preserve" text-anchor="middle" x="158.75" y="-73.5" font-family="Arial" font-size="10.00">partwhole:properPartOf</text>
</g>
<!-- TransportNode -->
<g id="node5" class="node">
<title>TransportNode</title>
<polygon fill="none" stroke="black" points="144.25,-16.5 144.25,-52.5 239.75,-52.5 239.75,-16.5 144.25,-16.5"/>
<text xml:space="preserve" text-anchor="middle" x="192" y="-30.23" font-family="Arial" font-size="12.00">TransportNode</text>
</g>
<!-- TravelledWayLink&#45;&gt;TransportNode -->
<g id="edge7" class="edge">
<title>TravelledWayLink:s&#45;&gt;TransportNode</title>
<path fill="none" stroke="black" d="M303,-100.5C303,-65.62 255.6,-102.22 226.5,-83 218.61,-77.79 211.9,-70.11 206.56,-62.44"/>
<polygon fill="black" stroke="black" points="209.65,-60.78 201.35,-54.2 203.74,-64.52 209.65,-60.78"/>
<text xml:space="preserve" text-anchor="middle" x="236.25" y="-73.5" font-family="Arial" font-size="10.00">from</text>
</g>
<!-- TravelledWayLink&#45;&gt;TransportNode -->
<g id="edge8" class="edge">
<title>TravelledWayLink:s&#45;&gt;TransportNode</title>
<path fill="none" stroke="black" d="M303,-100.5C303,-92.57 268.87,-73.45 238.46,-57.99"/>
<polygon fill="black" stroke="black" points="240.2,-54.95 229.7,-53.58 237.06,-61.2 240.2,-54.95"/>
<text xml:space="preserve" text-anchor="middle" x="285.89" y="-73.5" font-family="Arial" font-size="10.00">to</text>
</g>
<!-- TravelledWay -->
<g id="node6" class="node">
<title>TravelledWay</title>
<polygon fill="none" stroke="black" points="258.25,-16.5 258.25,-52.5 347.75,-52.5 347.75,-16.5 258.25,-16.5"/>
<text xml:space="preserve" text-anchor="middle" x="303" y="-30.23" font-family="Arial" font-size="12.00">TravelledWay</text>
</g>
<!-- TravelledWayLink&#45;&gt;TravelledWay -->
<g id="edge4" class="edge">
<title>TravelledWayLink:s&#45;&gt;TravelledWay</title>
<path fill="none" stroke="black" d="M303,-100.5C303,-88.65 303,-75.58 303,-64.29"/>
<polygon fill="black" stroke="black" points="306.5,-64.39 303,-54.39 299.5,-64.39 306.5,-64.39"/>
<text xml:space="preserve" text-anchor="middle" x="353.25" y="-73.5" font-family="Arial" font-size="10.00">partwhole:properPartOf</text>
</g>
<!-- TravelledWaySection -->
<g id="node7" class="node">
<title>TravelledWaySection</title>
<polygon fill="none" stroke="black" points="366,-16.5 366,-52.5 496,-52.5 496,-16.5 366,-16.5"/>
<text xml:space="preserve" text-anchor="middle" x="431" y="-30.23" font-family="Arial" font-size="12.00">TravelledWaySection</text>
</g>
<!-- TravelledWayLink&#45;&gt;TravelledWaySection -->
<g id="edge5" class="edge">
<title>TravelledWayLink:s&#45;&gt;TravelledWaySection</title>
<path fill="none" stroke="black" d="M303,-100.5C303,-77.06 388.13,-96.9 407,-83 413.78,-78.01 418.77,-70.56 422.39,-63.03"/>
<polygon fill="black" stroke="black" points="425.54,-64.56 426.07,-53.98 419.06,-61.93 425.54,-64.56"/>
<text xml:space="preserve" text-anchor="middle" x="467.87" y="-73.5" font-family="Arial" font-size="10.00">partwhole:properPartOf</text>
</g>
<!-- TravelledWaySegment -->
<g id="node8" class="node">
<title>TravelledWaySegment</title>
<polygon fill="none" stroke="black" points="514.25,-16.5 514.25,-52.5 651.75,-52.5 651.75,-16.5 514.25,-16.5"/>
<text xml:space="preserve" text-anchor="middle" x="583" y="-30.23" font-family="Arial" font-size="12.00">TravelledWaySegment</text>
</g>
<!-- TravelledWayLink&#45;&gt;TravelledWaySegment -->
<g id="edge3" class="edge">
<title>TravelledWayLink:s&#45;&gt;TravelledWaySegment</title>
<path fill="none" stroke="black" d="M303,-100.5C303,-76.09 499.25,-91.84 522,-83 535.06,-77.92 547.62,-69.09 557.91,-60.4"/>
<polygon fill="black" stroke="black" points="560.05,-63.18 565.19,-53.91 555.39,-57.95 560.05,-63.18"/>
<text xml:space="preserve" text-anchor="middle" x="596.04" y="-73.5" font-family="Arial" font-size="10.00">partwhole:hasProperPart</text>
</g>
<!-- code_Code -->
<g id="node9" class="node">
<title>code_Code</title>
<polygon fill="none" stroke="black" points="669.75,-16.5 669.75,-52.5 744.25,-52.5 744.25,-16.5 669.75,-16.5"/>
<text xml:space="preserve" text-anchor="middle" x="707" y="-30.23" font-family="Arial" font-size="12.00">code:Code</text>
</g>
<!-- TravelledWayLink&#45;&gt;code_Code -->
<g id="edge9" class="edge">
<title>TravelledWayLink:s&#45;&gt;code_Code</title>
<path fill="none" stroke="black" d="M303,-100.5C303,-80.98 635.94,-90.43 654,-83 665.78,-78.16 676.66,-69.51 685.46,-60.92"/>
<polygon fill="black" stroke="black" points="687.79,-63.55 692.18,-53.91 682.73,-58.71 687.79,-63.55"/>
<text xml:space="preserve" text-anchor="middle" x="712.48" y="-73.5" font-family="Arial" font-size="10.00">allowedDirections</text>
</g>
</g>
</svg>
