<?xml version="1.0" encoding="UTF-8" standalone="no"?>
<!DOCTYPE svg PUBLIC "-//W3C//DTD SVG 1.1//EN"
 "http://www.w3.org/Graphics/SVG/1.1/DTD/svg11.dtd">
<!-- Generated by graphviz version 13.0.0 (20250608.1624)
 -->
<!-- Pages: 1 -->
<svg width="439pt" height="245pt"
 viewBox="0.00 0.00 439.00 245.00" xmlns="http://www.w3.org/2000/svg" xmlns:xlink="http://www.w3.org/1999/xlink">
<g id="graph0" class="graph" transform="scale(1 1) rotate(0) translate(4 240.5)">
<polygon fill="white" stroke="none" points="-4,4 -4,-240.5 434.84,-240.5 434.84,4 -4,4"/>
<g id="clust1" class="cluster">
<title>cluster_main</title>
</g>
<g id="clust3" class="cluster">
<title>cluster_others</title>
</g>
<!-- NetworkElement -->
<g id="node1" class="node">
<title>NetworkElement</title>
<polygon fill="none" stroke="black" points="147.75,-184 147.75,-220 252.25,-220 252.25,-184 147.75,-184"/>
<text xml:space="preserve" text-anchor="middle" x="200" y="-197.72" font-family="Arial" font-size="12.00">NetworkElement</text>
</g>
<!-- TravelledWaySection -->
<g id="node2" class="node">
<title>TravelledWaySection</title>
<polygon fill="none" stroke="black" points="135,-101.5 135,-146 265,-146 265,-101.5 135,-101.5"/>
<text xml:space="preserve" text-anchor="middle" x="200" y="-130.6" font-family="Arial" font-size="12.00">TravelledWaySection</text>
<polyline fill="none" stroke="black" points="135,-123.75 265,-123.75"/>
<text xml:space="preserve" text-anchor="middle" x="200" y="-108.35" font-family="Arial" font-size="12.00"> </text>
</g>
<!-- TravelledWaySection&#45;&gt;NetworkElement -->
<g id="edge1" class="edge">
<title>TravelledWaySection&#45;&gt;NetworkElement</title>
<path fill="none" stroke="black" d="M200,-146.35C200,-154.38 200,-163.64 200,-172.21"/>
<polygon fill="none" stroke="black" points="196.5,-172.18 200,-182.18 203.5,-172.18 196.5,-172.18"/>
</g>
<!-- TransportNetwork -->
<g id="node3" class="node">
<title>TransportNetwork</title>
<polygon fill="none" stroke="black" points="15.75,-16.5 15.75,-52.5 126.25,-52.5 126.25,-16.5 15.75,-16.5"/>
<text xml:space="preserve" text-anchor="middle" x="71" y="-30.23" font-family="Arial" font-size="12.00">TransportNetwork</text>
</g>
<!-- TravelledWaySection&#45;&gt;TransportNetwork -->
<g id="edge4" class="edge">
<title>TravelledWaySection:s&#45;&gt;TransportNetwork</title>
<path fill="none" stroke="black" d="M200,-100.5C200,-76.95 114.52,-96.88 95.5,-83 88.67,-78.02 83.6,-70.57 79.9,-63.04"/>
<polygon fill="black" stroke="black" points="83.21,-61.87 76.13,-53.99 76.75,-64.56 83.21,-61.87"/>
<text xml:space="preserve" text-anchor="middle" x="145.75" y="-73.5" font-family="Arial" font-size="10.00">partwhole:properPartOf</text>
</g>
<!-- TravelledWayLink -->
<g id="node4" class="node">
<title>TravelledWayLink</title>
<polygon fill="none" stroke="black" points="144,-16.5 144,-52.5 256,-52.5 256,-16.5 144,-16.5"/>
<text xml:space="preserve" text-anchor="middle" x="200" y="-30.23" font-family="Arial" font-size="12.00">TravelledWayLink</text>
</g>
<!-- TravelledWaySection&#45;&gt;TravelledWayLink -->
<g id="edge2" class="edge">
<title>TravelledWaySection:s&#45;&gt;TravelledWayLink</title>
<path fill="none" stroke="black" d="M200,-100.5C200,-88.65 200,-75.58 200,-64.29"/>
<polygon fill="black" stroke="black" points="203.5,-64.39 200,-54.39 196.5,-64.39 203.5,-64.39"/>
<text xml:space="preserve" text-anchor="middle" x="253.62" y="-73.5" font-family="Arial" font-size="10.00">partwhole:hasProperPart</text>
</g>
<!-- TravelledWaySegment -->
<g id="node5" class="node">
<title>TravelledWaySegment</title>
<polygon fill="none" stroke="black" points="274.25,-16.5 274.25,-52.5 411.75,-52.5 411.75,-16.5 274.25,-16.5"/>
<text xml:space="preserve" text-anchor="middle" x="343" y="-30.23" font-family="Arial" font-size="12.00">TravelledWaySegment</text>
</g>
<!-- TravelledWaySection&#45;&gt;TravelledWaySegment -->
<g id="edge3" class="edge">
<title>TravelledWaySection:s&#45;&gt;TravelledWaySegment</title>
<path fill="none" stroke="black" d="M200,-100.5C200,-75.53 289.94,-96.42 311,-83 318.81,-78.02 325.18,-70.38 330.11,-62.66"/>
<polygon fill="black" stroke="black" points="333.13,-64.44 335.03,-54.02 327.05,-60.98 333.13,-64.44"/>
<text xml:space="preserve" text-anchor="middle" x="377.21" y="-73.5" font-family="Arial" font-size="10.00">partwhole:hasProperPart</text>
</g>
</g>
</svg>
