<?xml version="1.0" encoding="UTF-8" standalone="no"?>
<!DOCTYPE svg PUBLIC "-//W3C//DTD SVG 1.1//EN"
 "http://www.w3.org/Graphics/SVG/1.1/DTD/svg11.dtd">
<!-- Generated by graphviz version 13.0.0 (20250608.1624)
 -->
<!-- Pages: 1 -->
<svg width="341pt" height="245pt"
 viewBox="0.00 0.00 341.00 245.00" xmlns="http://www.w3.org/2000/svg" xmlns:xlink="http://www.w3.org/1999/xlink">
<g id="graph0" class="graph" transform="scale(1 1) rotate(0) translate(4 240.5)">
<polygon fill="white" stroke="none" points="-4,4 -4,-240.5 337,-240.5 337,4 -4,4"/>
<g id="clust1" class="cluster">
<title>cluster_main</title>
</g>
<g id="clust3" class="cluster">
<title>cluster_others</title>
</g>
<!-- NetworkElement -->
<g id="node1" class="node">
<title>NetworkElement</title>
<polygon fill="none" stroke="black" points="46.75,-184 46.75,-220 151.25,-220 151.25,-184 46.75,-184"/>
<text xml:space="preserve" text-anchor="middle" x="99" y="-197.72" font-family="Arial" font-size="12.00">NetworkElement</text>
</g>
<!-- transinfras_TravelledWay -->
<g id="node2" class="node">
<title>transinfras_TravelledWay</title>
<polygon fill="none" stroke="black" points="169,-184 169,-220 317,-220 317,-184 169,-184"/>
<text xml:space="preserve" text-anchor="middle" x="243" y="-197.72" font-family="Arial" font-size="12.00">transinfras:TravelledWay</text>
</g>
<!-- TravelledWay -->
<g id="node3" class="node">
<title>TravelledWay</title>
<polygon fill="none" stroke="black" points="105.38,-101.5 105.38,-146 228.62,-146 228.62,-101.5 105.38,-101.5"/>
<text xml:space="preserve" text-anchor="middle" x="167" y="-130.6" font-family="Arial" font-size="12.00">TravelledWay</text>
<polyline fill="none" stroke="black" points="105.38,-123.75 228.62,-123.75"/>
<text xml:space="preserve" text-anchor="middle" x="167" y="-108.35" font-family="Arial" font-size="12.00">designator: string [1]</text>
</g>
<!-- TravelledWay&#45;&gt;NetworkElement -->
<g id="edge1" class="edge">
<title>TravelledWay&#45;&gt;NetworkElement</title>
<path fill="none" stroke="black" d="M147.74,-146.35C139.75,-155.31 130.41,-165.78 122.06,-175.14"/>
<polygon fill="none" stroke="black" points="119.48,-172.78 115.44,-182.57 124.71,-177.43 119.48,-172.78"/>
</g>
<!-- TravelledWay&#45;&gt;transinfras_TravelledWay -->
<g id="edge2" class="edge">
<title>TravelledWay&#45;&gt;transinfras_TravelledWay</title>
<path fill="none" stroke="black" d="M188.53,-146.35C197.64,-155.49 208.32,-166.21 217.8,-175.72"/>
<polygon fill="none" stroke="black" points="215.15,-178.01 224.69,-182.63 220.11,-173.07 215.15,-178.01"/>
</g>
<!-- TransportNetwork -->
<g id="node4" class="node">
<title>TransportNetwork</title>
<polygon fill="none" stroke="black" points="15.75,-16.5 15.75,-52.5 126.25,-52.5 126.25,-16.5 15.75,-16.5"/>
<text xml:space="preserve" text-anchor="middle" x="71" y="-30.23" font-family="Arial" font-size="12.00">TransportNetwork</text>
</g>
<!-- TravelledWay&#45;&gt;TransportNetwork -->
<g id="edge4" class="edge">
<title>TravelledWay:s&#45;&gt;TransportNetwork</title>
<path fill="none" stroke="black" d="M167,-100.5C167,-57.35 99.3,-116 71.5,-83 67.08,-77.75 65.48,-70.88 65.33,-64.02"/>
<polygon fill="black" stroke="black" points="68.81,-64.49 66.11,-54.24 61.83,-63.94 68.81,-64.49"/>
<text xml:space="preserve" text-anchor="middle" x="121.75" y="-73.5" font-family="Arial" font-size="10.00">partwhole:properPartOf</text>
</g>
<!-- TravelledWayLink -->
<g id="node5" class="node">
<title>TravelledWayLink</title>
<polygon fill="none" stroke="black" points="144,-16.5 144,-52.5 256,-52.5 256,-16.5 144,-16.5"/>
<text xml:space="preserve" text-anchor="middle" x="200" y="-30.23" font-family="Arial" font-size="12.00">TravelledWayLink</text>
</g>
<!-- TravelledWay&#45;&gt;TravelledWayLink -->
<g id="edge3" class="edge">
<title>TravelledWay:s&#45;&gt;TravelledWayLink</title>
<path fill="none" stroke="black" d="M167,-100.5C167,-91.75 172.03,-90.79 176,-83 179.36,-76.41 182.97,-69.3 186.33,-62.63"/>
<polygon fill="black" stroke="black" points="189.3,-64.52 190.68,-54.02 183.05,-61.37 189.3,-64.52"/>
<text xml:space="preserve" text-anchor="middle" x="235.58" y="-73.5" font-family="Arial" font-size="10.00">partwhole:hasProperPart</text>
</g>
</g>
</svg>
