<?xml version="1.0" encoding="UTF-8" standalone="no"?>
<!DOCTYPE svg PUBLIC "-//W3C//DTD SVG 1.1//EN"
 "http://www.w3.org/Graphics/SVG/1.1/DTD/svg11.dtd">
<!-- Generated by graphviz version 13.0.0 (20250608.1624)
 -->
<!-- Pages: 1 -->
<svg width="194pt" height="245pt"
 viewBox="0.00 0.00 194.00 245.00" xmlns="http://www.w3.org/2000/svg" xmlns:xlink="http://www.w3.org/1999/xlink">
<g id="graph0" class="graph" transform="scale(1 1) rotate(0) translate(4 240.5)">
<polygon fill="white" stroke="none" points="-4,4 -4,-240.5 189.5,-240.5 189.5,4 -4,4"/>
<g id="clust1" class="cluster">
<title>cluster_main</title>
</g>
<g id="clust3" class="cluster">
<title>cluster_others</title>
</g>
<!-- NetworkElement -->
<g id="node1" class="node">
<title>NetworkElement</title>
<polygon fill="none" stroke="black" points="32.75,-184 32.75,-220 137.25,-220 137.25,-184 32.75,-184"/>
<text xml:space="preserve" text-anchor="middle" x="85" y="-197.72" font-family="Arial" font-size="12.00">NetworkElement</text>
</g>
<!-- TravelledWayLane -->
<g id="node2" class="node">
<title>TravelledWayLane</title>
<polygon fill="none" stroke="black" points="26.75,-101.5 26.75,-146 143.25,-146 143.25,-101.5 26.75,-101.5"/>
<text xml:space="preserve" text-anchor="middle" x="85" y="-130.6" font-family="Arial" font-size="12.00">TravelledWayLane</text>
<polyline fill="none" stroke="black" points="26.75,-123.75 143.25,-123.75"/>
<text xml:space="preserve" text-anchor="middle" x="85" y="-108.35" font-family="Arial" font-size="12.00"> </text>
</g>
<!-- TravelledWayLane&#45;&gt;NetworkElement -->
<g id="edge1" class="edge">
<title>TravelledWayLane&#45;&gt;NetworkElement</title>
<path fill="none" stroke="black" d="M85,-146.35C85,-154.38 85,-163.64 85,-172.21"/>
<polygon fill="none" stroke="black" points="81.5,-172.18 85,-182.18 88.5,-172.18 81.5,-172.18"/>
</g>
<!-- TravelledWaySegment -->
<g id="node3" class="node">
<title>TravelledWaySegment</title>
<polygon fill="none" stroke="black" points="16.25,-16.5 16.25,-52.5 153.75,-52.5 153.75,-16.5 16.25,-16.5"/>
<text xml:space="preserve" text-anchor="middle" x="85" y="-30.23" font-family="Arial" font-size="12.00">TravelledWaySegment</text>
</g>
<!-- TravelledWayLane&#45;&gt;TravelledWaySegment -->
<g id="edge2" class="edge">
<title>TravelledWayLane:s&#45;&gt;TravelledWaySegment</title>
<path fill="none" stroke="black" d="M85,-100.5C85,-88.65 85,-75.58 85,-64.29"/>
<polygon fill="black" stroke="black" points="88.5,-64.39 85,-54.39 81.5,-64.39 88.5,-64.39"/>
<text xml:space="preserve" text-anchor="middle" x="135.25" y="-73.5" font-family="Arial" font-size="10.00">partwhole:properPartOf</text>
</g>
</g>
</svg>
