<?xml version="1.0" encoding="UTF-8" standalone="no"?>
<!DOCTYPE svg PUBLIC "-//W3C//DTD SVG 1.1//EN"
 "http://www.w3.org/Graphics/SVG/1.1/DTD/svg11.dtd">
<!-- Generated by graphviz version 13.0.0 (20250608.1624)
 -->
<!-- Pages: 1 -->
<svg width="666pt" height="245pt"
 viewBox="0.00 0.00 666.00 245.00" xmlns="http://www.w3.org/2000/svg" xmlns:xlink="http://www.w3.org/1999/xlink">
<g id="graph0" class="graph" transform="scale(1 1) rotate(0) translate(4 240.5)">
<polygon fill="white" stroke="none" points="-4,4 -4,-240.5 662,-240.5 662,4 -4,4"/>
<g id="clust1" class="cluster">
<title>cluster_main</title>
</g>
<g id="clust3" class="cluster">
<title>cluster_others</title>
</g>
<!-- NetworkElement -->
<g id="node1" class="node">
<title>NetworkElement</title>
<polygon fill="none" stroke="black" points="145.75,-184 145.75,-220 250.25,-220 250.25,-184 145.75,-184"/>
<text xml:space="preserve" text-anchor="middle" x="198" y="-197.72" font-family="Arial" font-size="12.00">NetworkElement</text>
</g>
<!-- transinfras_TravelledWaySegment -->
<g id="node2" class="node">
<title>transinfras_TravelledWaySegment</title>
<polygon fill="none" stroke="black" points="268,-184 268,-220 464,-220 464,-184 268,-184"/>
<text xml:space="preserve" text-anchor="middle" x="366" y="-197.72" font-family="Arial" font-size="12.00">transinfras:TravelledWaySegment</text>
</g>
<!-- TravelledWaySegment -->
<g id="node3" class="node">
<title>TravelledWaySegment</title>
<polygon fill="none" stroke="black" points="206.25,-101.5 206.25,-146 343.75,-146 343.75,-101.5 206.25,-101.5"/>
<text xml:space="preserve" text-anchor="middle" x="275" y="-130.6" font-family="Arial" font-size="12.00">TravelledWaySegment</text>
<polyline fill="none" stroke="black" points="206.25,-123.75 343.75,-123.75"/>
<text xml:space="preserve" text-anchor="middle" x="275" y="-108.35" font-family="Arial" font-size="12.00"> </text>
</g>
<!-- TravelledWaySegment&#45;&gt;NetworkElement -->
<g id="edge1" class="edge">
<title>TravelledWaySegment&#45;&gt;NetworkElement</title>
<path fill="none" stroke="black" d="M253.19,-146.35C243.95,-155.49 233.13,-166.21 223.53,-175.72"/>
<polygon fill="none" stroke="black" points="221.19,-173.11 216.55,-182.63 226.12,-178.08 221.19,-173.11"/>
</g>
<!-- TravelledWaySegment&#45;&gt;transinfras_TravelledWaySegment -->
<g id="edge2" class="edge">
<title>TravelledWaySegment&#45;&gt;transinfras_TravelledWaySegment</title>
<path fill="none" stroke="black" d="M300.78,-146.35C312.02,-155.77 325.26,-166.86 336.86,-176.58"/>
<polygon fill="none" stroke="black" points="334.28,-178.99 344.19,-182.73 338.77,-173.62 334.28,-178.99"/>
</g>
<!-- TravelledWayLane -->
<g id="node4" class="node">
<title>TravelledWayLane</title>
<polygon fill="none" stroke="black" points="15.75,-16.5 15.75,-52.5 132.25,-52.5 132.25,-16.5 15.75,-16.5"/>
<text xml:space="preserve" text-anchor="middle" x="74" y="-30.23" font-family="Arial" font-size="12.00">TravelledWayLane</text>
</g>
<!-- TravelledWaySegment&#45;&gt;TravelledWayLane -->
<g id="edge5" class="edge">
<title>TravelledWaySegment:s&#45;&gt;TravelledWayLane</title>
<path fill="none" stroke="black" d="M275,-100.5C275,-61.36 132.34,-104.67 99.75,-83 92.64,-78.27 87.32,-70.89 83.43,-63.35"/>
<polygon fill="black" stroke="black" points="86.66,-61.99 79.44,-54.23 80.24,-64.79 86.66,-61.99"/>
<text xml:space="preserve" text-anchor="middle" x="153.38" y="-73.5" font-family="Arial" font-size="10.00">partwhole:hasProperPart</text>
</g>
<!-- TravelledWayLink -->
<g id="node5" class="node">
<title>TravelledWayLink</title>
<polygon fill="none" stroke="black" points="150,-16.5 150,-52.5 262,-52.5 262,-16.5 150,-16.5"/>
<text xml:space="preserve" text-anchor="middle" x="206" y="-30.23" font-family="Arial" font-size="12.00">TravelledWayLink</text>
</g>
<!-- TravelledWaySegment&#45;&gt;TravelledWayLink -->
<g id="edge6" class="edge">
<title>TravelledWaySegment:s&#45;&gt;TravelledWayLink</title>
<path fill="none" stroke="black" d="M275,-100.5C275,-74.21 236.68,-101.98 218.5,-83 213.53,-77.81 210.47,-70.89 208.62,-63.94"/>
<polygon fill="black" stroke="black" points="212.1,-63.54 206.81,-54.36 205.22,-64.84 212.1,-63.54"/>
<text xml:space="preserve" text-anchor="middle" x="268.75" y="-73.5" font-family="Arial" font-size="10.00">partwhole:properPartOf</text>
</g>
<!-- TravelledWaySection -->
<g id="node6" class="node">
<title>TravelledWaySection</title>
<polygon fill="none" stroke="black" points="280,-16.5 280,-52.5 410,-52.5 410,-16.5 280,-16.5"/>
<text xml:space="preserve" text-anchor="middle" x="345" y="-30.23" font-family="Arial" font-size="12.00">TravelledWaySection</text>
</g>
<!-- TravelledWaySegment&#45;&gt;TravelledWaySection -->
<g id="edge4" class="edge">
<title>TravelledWaySegment:s&#45;&gt;TravelledWaySection</title>
<path fill="none" stroke="black" d="M275,-100.5C275,-79.45 303.24,-96.94 319,-83 325.15,-77.56 330.13,-70.3 334.02,-63.1"/>
<polygon fill="black" stroke="black" points="337.14,-64.7 338.3,-54.17 330.82,-61.68 337.14,-64.7"/>
<text xml:space="preserve" text-anchor="middle" x="378.88" y="-73.5" font-family="Arial" font-size="10.00">partwhole:properPartOf</text>
</g>
<!-- travelcorridor_TravelCorridorSegment -->
<g id="node7" class="node">
<title>travelcorridor_TravelCorridorSegment</title>
<polygon fill="none" stroke="black" points="428.38,-16.5 428.38,-52.5 641.62,-52.5 641.62,-16.5 428.38,-16.5"/>
<text xml:space="preserve" text-anchor="middle" x="535" y="-30.23" font-family="Arial" font-size="12.00">travelcorridor:TravelCorridorSegment</text>
</g>
<!-- TravelledWaySegment&#45;&gt;travelcorridor_TravelCorridorSegment -->
<g id="edge3" class="edge">
<title>TravelledWaySegment:s&#45;&gt;travelcorridor_TravelCorridorSegment</title>
<path fill="none" stroke="black" d="M275,-100.5C275,-82.84 415.99,-87.76 433,-83 454.17,-77.07 476.44,-67.18 494.75,-57.95"/>
<polygon fill="black" stroke="black" points="496.14,-61.17 503.41,-53.47 492.92,-54.95 496.14,-61.17"/>
<text xml:space="preserve" text-anchor="middle" x="513.72" y="-73.5" font-family="Arial" font-size="10.00">travelCorridorSegment</text>
</g>
</g>
</svg>
